<svg width="143" height="135" viewBox="0 0 143 135" fill="none" xmlns="http://www.w3.org/2000/svg">
<path d="M64.5132 0.304688C99.4178 -2.85525 131.967 18.8742 140.496 51.0283C141.588 55.1475 142.443 60.0051 142.443 62.1006C142.443 62.8467 142.551 63.2569 142.721 63.1572C142.903 63.0517 143 64.4735 143 67.2285C143 69.5573 142.893 71.4639 142.762 71.4639C142.631 71.4657 142.441 72.5798 142.34 73.9414C141.616 83.6822 137.137 95.7544 131.028 104.427C110.53 133.526 71.0596 143.334 38.5796 127.398C4.33611 110.597 -9.66542 71.0647 7.04834 38.3721C17.9413 17.065 39.8744 2.53525 64.5132 0.304688ZM135.18 54.0605C128.23 24.6152 99.2375 3.88271 67.5806 5.71973C40.0919 7.31499 16.4066 25.1303 8.5708 50.1055C5.10486 61.1531 5.10485 73.8635 8.5708 84.9111C15.1453 105.866 33.0722 122.147 55.478 127.513C68.1751 130.553 82.4665 129.755 94.606 125.327C114.506 118.068 129.571 102.018 134.793 82.5137C137.218 73.4579 137.357 63.2825 135.18 54.0605ZM78.3579 25.5479C79.0296 25.1835 93.9308 25.1512 94.5698 25.5127C95.5183 26.0526 95.4399 22.4318 95.4399 65.4639C95.4399 108.495 95.5182 104.875 94.5698 105.415C93.9328 105.778 79.0862 105.752 78.3813 105.387C77.3981 104.873 77.4751 108.255 77.4751 65.4639C77.4751 22.7738 77.4014 26.0664 78.3579 25.5479ZM34.3179 78.0127C34.9411 77.5943 49.9458 77.5317 50.6743 77.9443C51.5606 78.4488 51.5259 77.8765 51.5259 91.6816C51.5259 105.653 51.5783 104.886 50.5835 105.405C49.9155 105.753 35.0404 105.762 34.4302 105.415C33.5102 104.892 33.561 105.69 33.561 91.6699C33.561 78.0553 33.5338 78.5389 34.3179 78.0127ZM56.7056 45.5469C57.3439 45.3435 71.5634 45.3345 72.2261 45.5371C72.5151 45.6255 72.9156 45.9138 73.1167 46.1768L73.4829 46.6543V75.4502C73.4829 107.378 73.558 104.957 72.5513 105.42C71.8337 105.75 57.1727 105.75 56.4497 105.42C55.4427 104.957 55.5181 107.381 55.5181 75.4502V46.6543L55.8862 46.1729C56.0888 45.908 56.4573 45.6261 56.7056 45.5469ZM36.8403 101.876H48.104V81.4727H36.8403V101.876ZM58.9399 101.876H70.061V49.1416H58.9399V101.876ZM80.897 101.876H92.1606V29.0527H80.897V101.876ZM0.175293 65.333C0.123715 64.1368 0.0815477 65.1152 0.081543 67.5078C0.081543 69.9007 0.123712 70.8801 0.175293 69.6836C0.226871 68.4871 0.226867 66.5293 0.175293 65.333Z" fill="#2C4C7C"/>
</svg>
